<?xml version="1.0" encoding="UTF-8" standalone="no"?>
<!-- Created with Inkscape (http://www.inkscape.org/) -->
<!-- Created by Yann <rockyracer@mailfence.com> -->

<svg
   xmlns="http://www.w3.org/2000/svg"
   width="50"
   height="60"
   viewBox="0 0 50 60"
   version="1.1"
   id="svg8">
  <path
     style="fill:#69505a;fill-opacity:1;stroke:none;stroke-width:0.19999987;stroke-linejoin:round;stroke-miterlimit:4;stroke-dasharray:none;stroke-opacity:1;paint-order:markers fill stroke"
     d="m 6.4999911e-5,45 v 12 c 0,1.4142 1.585734800089,3 2.999930900089,3 H 46.999936 C 48.414163,60 50,58.41423 50,57 V 45 Z"
     id="rect820" />
  <path
     style="fill:#916e82;fill-opacity:1;stroke:none;stroke-width:1.02156138;stroke-linejoin:round;stroke-miterlimit:4;stroke-dasharray:none;stroke-opacity:1;paint-order:markers fill stroke"
     d="M 2.9999959,0 C 1.5857838,0 0,1.58579 0,3 V 45 H 49.99993 V 11 L 38.999947,0 Z"
     id="rect820-2" />
  <path
     style="fill:#69505a;fill-opacity:1;stroke:none;stroke-width:0.19999987;stroke-linejoin:round;stroke-miterlimit:4;stroke-dasharray:none;stroke-opacity:1;paint-order:markers fill stroke"
     d="m 38.999947,0 v 8 c 0,1.41421 1.585784,3 2.999996,3 h 7.999987 z"
     id="rect820-2-7" />
  <rect
     ry="2"
     y="18"
     x="5.9999919"
     height="4"
     width="37.999947"
     id="rect24"
     style="fill:#69505a;fill-opacity:1;stroke:none;stroke-width:0.19999987;stroke-linejoin:round;stroke-miterlimit:4;stroke-dasharray:none;stroke-opacity:1;paint-order:markers fill stroke" />
  <rect
     ry="2"
     y="26"
     x="5.9999919"
     height="4"
     width="37.99995"
     id="rect24-7"
     style="fill:#69505a;fill-opacity:1;stroke:none;stroke-width:0.19999987;stroke-linejoin:round;stroke-miterlimit:4;stroke-dasharray:none;stroke-opacity:1;paint-order:markers fill stroke" />
  <rect
     ry="2"
     y="34"
     x="5.9999919"
     height="4"
     width="37.99995"
     id="rect24-1"
     style="fill:#69505a;fill-opacity:1;stroke:none;stroke-width:0.19999987;stroke-linejoin:round;stroke-miterlimit:4;stroke-dasharray:none;stroke-opacity:1;paint-order:markers fill stroke" />
  <path
     id="path18"
     d="M 14.103874,57.18002 V 47.82 h 5.636067 v 1.48958 h -3.845703 v 2.32747 h 3.666667 v 1.45378 h -3.666667 v 2.59961 h 3.845703 v 1.48958 z"
     style="fill:#ffffff" />
  <path
     id="path20"
     d="m 26.629264,57.18002 -1.804687,-3.44466 -1.776042,3.44466 H 20.921582 L 23.621452,52.38185 21.100618,47.82 H 23.17028 L 24.867546,51.07846 26.50752,47.82 h 2.069661 l -2.50651,4.56185 2.80013,4.79817 z"
     style="fill:#ffffff" />
  <path
     id="path22"
     d="M 30.260124,57.18002 V 47.82 h 5.636067 v 1.48958 h -3.845703 v 2.32747 h 3.666667 v 1.45378 h -3.666667 v 2.59961 h 3.845703 v 1.48958 z"
     style="fill:#ffffff" />
</svg>
