<?xml version="1.0" encoding="UTF-8" standalone="no"?>
<!-- Created with Inkscape (http://www.inkscape.org/) -->
<!-- Created by Yann <rockyracer@mailfence.com> -->

<svg
   xmlns="http://www.w3.org/2000/svg"
   width="60"
   height="60"
   viewBox="0 0 60 60"
   version="1.1"
   id="svg8">
  <path
     style="fill:#e6e6e6;fill-opacity:1;stroke:none;stroke-width:1.04574919;stroke-linejoin:round;stroke-miterlimit:4;stroke-dasharray:none;stroke-opacity:1;paint-order:markers fill stroke"
     d="m 13,0 c -1.414212,0 -3,1.58579 -3,3 v 42 12 c 0,1.4142 1.585804,3 3,3 h 44 c 1.414227,0 3,-1.58577 3,-3 V 45 11 L 49,0 Z"
     id="rect820" />
  <path
     id="rect820-2-7"
     d="m 48.999947,0 v 8 c 0,1.41421 1.585784,3 2.999996,3 h 7.999987 z"
     style="fill:#37c8ab;fill-opacity:1;stroke:none;stroke-width:0.9976579;stroke-linejoin:round;stroke-miterlimit:4;stroke-dasharray:none;stroke-opacity:1;paint-order:markers fill stroke" />
  <path
     style="fill:#37c8ab;fill-opacity:1;stroke:none;stroke-width:1.38912702;stroke-linejoin:round;stroke-miterlimit:4;stroke-dasharray:none;stroke-opacity:1;paint-order:markers fill stroke"
     d="m 3,24 h 39 c 1.672043,0 3,1.36511 3,3 v 15 c 0,1.63489 -1.327957,3 -3,3 H 3 C 1.3279575,45 0,43.63489 0,42 V 27 c 0,-1.63489 1.3279575,-3 3,-3 z"
     id="rect824" />
  <path
     d="m 15.758789,40.039387 -0.203125,-6.254558 -0.07617,-2.496745 -0.533203,1.692709 -1.227213,3.766276 H 12.41569 l -1.108724,-3.766276 -0.465495,-1.692709 -0.05924,2.445964 -0.186198,6.305339 H 8.8271485 L 9.3688151,28.977537 H 11.72168 l 0.973307,3.139974 0.465495,1.768881 0.465495,-1.667318 1.024088,-3.241537 h 2.395183 l 0.55013,11.06185 z"
     id="path824"
     style="fill:#ffffff" />
  <path
     d="m 26.812175,32.498371 q 0,0.863281 -0.287761,1.599609 -0.28776,0.727865 -0.854817,1.261068 -0.567058,0.533203 -1.413412,0.829427 -0.846354,0.296224 -1.963542,0.296224 h -1.057942 v 3.554688 h -2.098959 v -11.06185 h 3.241537 q 1.07487,0 1.895833,0.23698 0.829427,0.228515 1.388021,0.677083 0.567057,0.448568 0.854818,1.108724 0.296224,0.651693 0.296224,1.498047 z m -2.183594,0.14388 q 0,-0.440104 -0.14388,-0.795573 Q 24.349284,31.482746 24.061524,31.22884 23.782227,30.974933 23.350586,30.839517 22.918945,30.7041 22.326498,30.7041 h -1.091797 v 4.054037 h 1.159505 q 0.541667,0 0.95638,-0.143881 0.414714,-0.152343 0.694011,-0.43164 0.28776,-0.279297 0.43164,-0.66862 0.152344,-0.389323 0.152344,-0.871745 z"
     id="path826"
     style="fill:#ffffff" />
  <path
     d="m 36.172852,36.662434 q 0,0.820963 -0.304688,1.481119 -0.304687,0.651693 -0.939453,1.117188 -0.626302,0.457031 -1.582682,0.702474 -0.95638,0.245443 -2.251302,0.245443 -0.287761,0 -0.609375,-0.01693 -0.313151,-0.0085 -0.626302,-0.03385 -0.313151,-0.01693 -0.609375,-0.05078 -0.296224,-0.02539 -0.533204,-0.06771 v -1.794271 q 0.533204,0.101562 1.19336,0.169271 0.66862,0.05924 1.388021,0.05924 0.702474,0 1.210286,-0.118489 0.507813,-0.11849 0.837891,-0.338542 0.330078,-0.228515 0.482422,-0.558594 0.160807,-0.330078 0.160807,-0.744791 0,-0.363933 -0.160807,-0.660157 -0.160808,-0.296223 -0.490886,-0.499348 -0.330078,-0.211589 -0.846354,-0.321615 -0.507812,-0.11849 -1.210286,-0.11849 h -1.227214 v -1.574218 h 1.125651 q 0.660156,0 1.091797,-0.126954 0.440104,-0.135416 0.69401,-0.355468 0.26237,-0.220052 0.372396,-0.516276 0.110026,-0.304688 0.110026,-0.634766 0,-0.677083 -0.440104,-1.024089 -0.440104,-0.355468 -1.36263,-0.355468 -0.660156,0 -1.303386,0.126953 -0.643229,0.126953 -1.328776,0.338541 v -1.735026 q 0.38086,-0.126953 0.727865,-0.211588 0.347005,-0.08464 0.69401,-0.14388 0.347006,-0.05925 0.702474,-0.08464 0.355469,-0.02539 0.736329,-0.02539 0.914062,0 1.599609,0.194662 0.69401,0.194661 1.159505,0.558594 0.473959,0.355468 0.710938,0.871745 0.236979,0.516276 0.236979,1.151041 0,1.007162 -0.465495,1.633464 -0.457031,0.617838 -1.286458,0.947917 0.533203,0.08463 0.964844,0.296224 0.43164,0.203125 0.736328,0.533203 0.313151,0.321614 0.473958,0.744791 0.169271,0.423177 0.169271,0.939454 z"
     id="path828"
     style="fill:#ffffff" />
</svg>
