<?xml version="1.0" encoding="UTF-8" standalone="no"?>
<!-- Created with Inkscape (http://www.inkscape.org/) -->
<!-- Created by Yann <rockyracer@mailfence.com> -->

<svg
   xmlns="http://www.w3.org/2000/svg"
   width="60"
   height="60"
   viewBox="0 0 60 60"
   version="1.1"
   id="svg8">
  <path
     style="fill:#e6e6e6;fill-opacity:1;stroke:none;stroke-width:1.04574919;stroke-linejoin:round;stroke-miterlimit:4;stroke-dasharray:none;stroke-opacity:1;paint-order:markers fill stroke"
     d="m 13,0 c -1.414212,0 -3,1.58579 -3,3 v 42 12 c 0,1.4142 1.585804,3 3,3 h 44 c 1.414227,0 3,-1.58577 3,-3 V 45 11 L 49,0 Z"
     id="rect820" />
  <path
     id="rect820-2-7"
     d="m 48.999947,0 v 8 c 0,1.41421 1.585784,3 2.999996,3 h 7.999987 z"
     style="fill:#96c832;fill-opacity:1;stroke:none;stroke-width:0.9976579;stroke-linejoin:round;stroke-miterlimit:4;stroke-dasharray:none;stroke-opacity:1;paint-order:markers fill stroke" />
  <path
     style="fill:#96c832;fill-opacity:1;stroke:none;stroke-width:1.38912702;stroke-linejoin:round;stroke-miterlimit:4;stroke-dasharray:none;stroke-opacity:1;paint-order:markers fill stroke"
     d="m 3,24 h 39 c 1.672043,0 3,1.36511 3,3 v 15 c 0,1.63489 -1.327957,3 -3,3 H 3 C 1.3279575,45 0,43.63489 0,42 V 27 c 0,-1.63489 1.3279575,-3 3,-3 z"
     id="rect824" />
  <path
     d="m 16.825195,32.485676 q 0,0.863281 -0.28776,1.599609 -0.287761,0.727865 -0.854818,1.261068 -0.567057,0.533203 -1.413411,0.829427 -0.846355,0.296224 -1.963542,0.296224 h -1.057943 v 3.554687 H 9.1487627 V 28.964842 h 3.2415363 q 1.07487,0 1.895834,0.236979 0.829427,0.228516 1.388021,0.677084 0.567057,0.448567 0.854817,1.108724 0.296224,0.651692 0.296224,1.498047 z m -2.183594,0.14388 q 0,-0.440104 -0.14388,-0.795573 -0.135416,-0.363933 -0.423177,-0.617839 -0.279297,-0.253906 -0.710937,-0.389323 -0.431641,-0.135416 -1.024089,-0.135416 h -1.091797 v 4.054036 h 1.159505 q 0.541667,0 0.956381,-0.14388 0.414713,-0.152344 0.69401,-0.431641 0.287761,-0.279296 0.431641,-0.668619 0.152343,-0.389323 0.152343,-0.871745 z"
     id="path819"
     style="fill:#ffffff" />
  <path
     d="m 23.816081,40.026691 -2.96224,-6.601562 -0.609375,-1.421875 v 4.587239 3.436198 H 18.348633 V 28.964842 h 2.555989 l 3.021485,6.643881 0.533203,1.294921 v -4.883463 -3.055339 h 1.895833 v 11.061849 z"
     id="path821"
     style="fill:#ffffff" />
  <path
     d="m 31.91569,35.346353 v -1.718099 h 3.935547 v 5.899088 q -0.761719,0.355469 -1.591146,0.52474 -0.829427,0.169271 -1.802734,0.169271 -1.151042,0 -2.073568,-0.355469 -0.914063,-0.355469 -1.557292,-1.057943 -0.643229,-0.702474 -0.990234,-1.743489 -0.338542,-1.041016 -0.338542,-2.41211 0,-1.379557 0.355469,-2.471354 0.363932,-1.091797 1.049479,-1.845052 0.69401,-0.761719 1.692708,-1.159505 1.007162,-0.397787 2.29362,-0.397787 0.761719,0 1.48112,0.135417 0.727865,0.126953 1.447266,0.347005 v 2.056641 q -0.626302,-0.296224 -1.388021,-0.482422 -0.753255,-0.194662 -1.523438,-0.194662 -0.778645,0 -1.379557,0.270834 -0.592448,0.270833 -0.998698,0.770182 -0.397786,0.499349 -0.609375,1.227214 -0.203125,0.727864 -0.203125,1.641927 0,0.880208 0.160807,1.591146 0.160808,0.702474 0.516276,1.201823 0.363933,0.490885 0.93099,0.753255 0.567057,0.26237 1.379557,0.26237 0.194662,0 0.338542,-0.0085 0.14388,-0.01693 0.270833,-0.04232 0.126954,-0.02539 0.23698,-0.05924 0.118489,-0.03385 0.245442,-0.07617 v -2.826823 z"
     id="path823"
     style="fill:#ffffff" />
</svg>
