<?xml version="1.0" encoding="UTF-8" standalone="no"?>
<!-- Created with Inkscape (http://www.inkscape.org/) -->
<!-- Created by Yann <rockyracer@mailfence.com> -->

<svg
   xmlns="http://www.w3.org/2000/svg"
   width="50"
   height="60"
   viewBox="0 0 50 60"
   version="1.1"
   id="svg8">
  <path
     style="fill:#96c832;fill-opacity:1;stroke:none;stroke-width:0.19999987;stroke-linejoin:round;stroke-miterlimit:4;stroke-dasharray:none;stroke-opacity:1;paint-order:markers fill stroke"
     d="m 6.4999912e-5,45 v 12 c 0,1.4142 1.585734800088,3 2.999930900088,3 H 46.999936 C 48.414164,60 50,58.41423 50,57 V 45 Z"
     id="rect820" />
  <path
     style="fill:#bee650;fill-opacity:1;stroke:none;stroke-width:1.02156138;stroke-linejoin:round;stroke-miterlimit:4;stroke-dasharray:none;stroke-opacity:1;paint-order:markers fill stroke"
     d="M 2.9999959,0 C 1.5857838,0 0,1.58579 0,3 V 45 H 49.99993 V 11 L 38.999947,0 Z"
     id="rect820-2" />
  <path
     style="fill:#96c832;fill-opacity:1;stroke:none;stroke-width:0.19999987;stroke-linejoin:round;stroke-miterlimit:4;stroke-dasharray:none;stroke-opacity:1;paint-order:markers fill stroke"
     d="m 38.999947,0 v 8 c 0,1.41421 1.585784,3 2.999996,3 h 7.999987 z"
     id="rect820-2-7" />
  <rect
     ry="2"
     y="18"
     x="5.9999919"
     height="4"
     width="37.999947"
     id="rect24"
     style="fill:#96c832;fill-opacity:1;stroke:none;stroke-width:0.19999987;stroke-linejoin:round;stroke-miterlimit:4;stroke-dasharray:none;stroke-opacity:1;paint-order:markers fill stroke" />
  <rect
     ry="2"
     y="26"
     x="5.9999919"
     height="4"
     width="37.99995"
     id="rect24-7"
     style="fill:#96c832;fill-opacity:1;stroke:none;stroke-width:0.19999987;stroke-linejoin:round;stroke-miterlimit:4;stroke-dasharray:none;stroke-opacity:1;paint-order:markers fill stroke" />
  <rect
     ry="2"
     y="34"
     x="5.9999919"
     height="4"
     width="37.99995"
     id="rect24-1"
     style="fill:#96c832;fill-opacity:1;stroke:none;stroke-width:0.19999987;stroke-linejoin:round;stroke-miterlimit:4;stroke-dasharray:none;stroke-opacity:1;paint-order:markers fill stroke" />
  <path
     id="path22"
     d="m 20.198275,50.79556 q 0,0.73047 -0.243489,1.35352 -0.24349,0.61588 -0.723308,1.06706 -0.479818,0.45117 -1.195963,0.70182 -0.716146,0.25065 -1.661459,0.25065 h -0.895182 v 3.00781 H 13.702832 V 47.8164 h 2.742839 q 0.909505,0 1.604167,0.20052 0.701822,0.19336 1.174479,0.57291 0.479817,0.37956 0.723307,0.93815 0.250651,0.55144 0.250651,1.26758 z m -1.847656,0.12175 q 0,-0.3724 -0.121745,-0.67318 -0.114583,-0.30794 -0.358073,-0.52279 -0.236328,-0.21484 -0.601562,-0.32942 -0.365235,-0.11459 -0.866537,-0.11459 h -0.923828 v 3.43034 h 0.98112 q 0.458333,0 0.809245,-0.12174 0.350911,-0.12891 0.587239,-0.36524 0.24349,-0.23633 0.365235,-0.56575 0.128906,-0.32943 0.128906,-0.73763 z"
     style="fill:#ffffff" />
  <path
     id="path24"
     d="m 26.11364,57.17642 -2.506511,-5.58594 -0.515625,-1.20312 v 3.88151 2.90755 H 21.487337 V 47.8164 h 2.162761 l 2.556641,5.62174 0.451171,1.0957 V 50.40168 47.8164 h 1.604167 v 9.36002 z"
     style="fill:#ffffff" />
  <path
     id="path26"
     d="m 32.967155,53.21614 v -1.45378 h 3.330078 v 4.99154 q -0.644531,0.30078 -1.346354,0.44401 -0.701823,0.14323 -1.52539,0.14323 -0.973959,0 -1.754558,-0.30079 -0.773437,-0.30078 -1.317708,-0.89518 -0.544271,-0.5944 -0.837891,-1.47526 -0.286458,-0.88086 -0.286458,-2.04101 0,-1.16732 0.300781,-2.09115 0.307943,-0.92383 0.888021,-1.5612 0.58724,-0.64453 1.432292,-0.98112 0.852213,-0.33659 1.940755,-0.33659 0.644531,0 1.253255,0.11459 0.615886,0.10742 1.22461,0.29362 v 1.74023 q -0.529948,-0.25065 -1.17448,-0.4082 -0.637369,-0.16472 -1.289062,-0.16472 -0.658854,0 -1.167318,0.22917 -0.501302,0.22917 -0.845052,0.65169 -0.336589,0.42253 -0.515625,1.03842 -0.171875,0.61588 -0.171875,1.38932 0,0.74479 0.136068,1.34635 0.136067,0.5944 0.436849,1.01693 0.307942,0.41536 0.78776,0.63737 0.479818,0.222 1.167318,0.222 0.164713,0 0.286458,-0.007 0.121745,-0.0143 0.229167,-0.0358 0.107422,-0.0215 0.200521,-0.0501 0.10026,-0.0287 0.207682,-0.0645 v -2.39192 z"
     style="fill:#ffffff" />
</svg>
