<?xml version="1.0" encoding="UTF-8" standalone="no"?>
<!-- Created with Inkscape (http://www.inkscape.org/) -->
<!-- Created by Yann <rockyracer@mailfence.com> -->

<svg
   xmlns="http://www.w3.org/2000/svg"
   width="50"
   height="60"
   viewBox="0 0 50 60"
   version="1.1"
   id="svg8">
  <path
     style="fill:#2ca02c;fill-opacity:1;stroke:none;stroke-width:1.04574919;stroke-linejoin:round;stroke-miterlimit:4;stroke-dasharray:none;stroke-opacity:1;paint-order:markers fill stroke"
     d="m 6.4999912e-5,45 v 12 c 0,1.4142 1.585734800088,3 2.999930900088,3 H 46.999936 C 48.414164,60 50,58.41423 50,57 V 45 Z"
     id="rect820" />
  <path
     style="fill:#64c864;fill-opacity:1;stroke:none;stroke-width:1.02156138;stroke-linejoin:round;stroke-miterlimit:4;stroke-dasharray:none;stroke-opacity:1;paint-order:markers fill stroke"
     d="M 2.9999959,0 C 1.5857838,0 0,1.58579 0,3 V 45 H 49.99993 V 11 L 38.999947,0 Z"
     id="rect820-2" />
  <path
     style="fill:#2ca02c;fill-opacity:1;stroke:none;stroke-width:0.9976579;stroke-linejoin:round;stroke-miterlimit:4;stroke-dasharray:none;stroke-opacity:1;paint-order:markers fill stroke"
     d="m 38.999947,0 v 8 c 0,1.41421 1.585784,3 2.999996,3 h 7.999987 z"
     id="rect820-2-7" />
  <rect
     ry="2"
     y="18"
     x="5.9999919"
     height="4"
     width="37.999947"
     id="rect24"
     style="fill:#2ca02c;fill-opacity:1;stroke:none;stroke-width:1.0904572;stroke-linejoin:round;stroke-miterlimit:4;stroke-dasharray:none;stroke-opacity:1;paint-order:markers fill stroke" />
  <rect
     ry="2"
     y="26"
     x="5.9999919"
     height="4"
     width="37.99995"
     id="rect24-7"
     style="fill:#2ca02c;fill-opacity:1;stroke:none;stroke-width:1.0904572;stroke-linejoin:round;stroke-miterlimit:4;stroke-dasharray:none;stroke-opacity:1;paint-order:markers fill stroke" />
  <rect
     ry="2"
     y="34"
     x="5.9999919"
     height="4"
     width="37.99995"
     id="rect24-1"
     style="fill:#2ca02c;fill-opacity:1;stroke:none;stroke-width:1.0904572;stroke-linejoin:round;stroke-miterlimit:4;stroke-dasharray:none;stroke-opacity:1;paint-order:markers fill stroke" />
  <path
     id="path22"
     d="m 19.005892,57.17642 -1.804687,-3.44466 -1.776042,3.44466 H 13.29821 l 2.69987,-4.79818 -2.520834,-4.56184 h 2.069662 l 1.697265,3.25846 1.639974,-3.25846 h 2.069662 l -2.506511,4.56184 2.800131,4.79818 z"
     style="fill:#ffffff" />
  <path
     id="path24"
     d="M 22.72985,57.17642 V 47.8164 h 1.790365 v 7.84895 h 3.953125 v 1.51107 z"
     style="fill:#ffffff" />
  <path
     id="path26"
     d="m 36.701856,54.34765 q 0,0.76627 -0.286459,1.33203 -0.279296,0.56575 -0.78776,0.93815 -0.508464,0.36523 -1.210286,0.54427 -0.701823,0.17904 -1.532553,0.17904 -0.73763,0 -1.42513,-0.0859 -0.6875,-0.0859 -1.360677,-0.28646 v -1.74023 q 0.329427,0.11458 0.6875,0.21484 0.358073,0.10026 0.716146,0.17904 0.365234,0.0716 0.723307,0.11458 0.358073,0.043 0.694662,0.043 0.501302,0 0.852213,-0.0859 0.350912,-0.0859 0.572917,-0.23633 0.222005,-0.15039 0.322266,-0.35807 0.10026,-0.20768 0.10026,-0.45833 0,-0.34375 -0.200521,-0.57292 -0.193359,-0.23633 -0.515625,-0.41537 -0.322265,-0.17903 -0.73763,-0.32226 -0.408203,-0.14323 -0.837891,-0.30794 -0.422526,-0.16472 -0.83789,-0.3724 -0.408203,-0.20768 -0.730469,-0.51562 -0.322266,-0.30795 -0.522787,-0.73047 -0.193359,-0.42969 -0.193359,-1.03125 0,-0.55144 0.200521,-1.04558 0.200521,-0.49414 0.630208,-0.85937 0.429688,-0.3724 1.102865,-0.58724 0.673177,-0.22201 1.625651,-0.22201 0.279297,0 0.580078,0.0287 0.307943,0.0215 0.601563,0.0644 0.300781,0.0358 0.572916,0.0931 0.279297,0.0501 0.508464,0.10742 V 49.5639 Q 35.785189,49.478 35.513054,49.40635 35.240918,49.33475 34.947298,49.2846 34.66084,49.2273 34.36722,49.1987 q -0.293619,-0.0286 -0.558593,-0.0286 -0.465495,0 -0.787761,0.0788 -0.322265,0.0716 -0.529948,0.20768 -0.207682,0.12891 -0.300781,0.32227 -0.0931,0.19335 -0.0931,0.42968 0,0.29362 0.193359,0.50847 0.200521,0.20768 0.522787,0.37955 0.329427,0.16472 0.73763,0.31511 0.415365,0.14323 0.845052,0.3151 0.436849,0.16472 0.845052,0.37956 0.415365,0.21484 0.737631,0.52279 0.329427,0.30794 0.522786,0.73046 0.200521,0.41537 0.200521,0.98829 z"
     style="fill:#ffffff" />
</svg>
