<?xml version="1.0" encoding="UTF-8" standalone="no"?>
<!-- Created with Inkscape (http://www.inkscape.org/) -->
<!-- Created by Yann <rockyracer@mailfence.com> -->

<svg
   xmlns="http://www.w3.org/2000/svg"
   width="50"
   height="60"
   viewBox="0 0 50 60"
   version="1.1"
   id="svg8">
  <path
     id="rect820"
     d="M 6.5499956e-5,45.000003 V 57.000001 C 6.5499956e-5,58.4142 1.5858003,60 2.9999964,60 H 46.999937 c 1.414227,0 3.000064,-1.58577 3.000064,-2.999999 V 45.000003 Z"
     style="fill:#c83771;fill-opacity:1;stroke:none;stroke-width:1.04574919;stroke-linejoin:round;stroke-miterlimit:4;stroke-dasharray:none;stroke-opacity:1;paint-order:markers fill stroke" />
  <path
     id="rect820-2"
     d="M 2.9999959,0 C 1.5857839,0 0,1.5857897 0,2.9999995 V 44.999992 H 49.99993 V 10.999998 L 38.999947,0 Z"
     style="fill:#de79aa;fill-opacity:1;stroke:none;stroke-width:1.02156138;stroke-linejoin:round;stroke-miterlimit:4;stroke-dasharray:none;stroke-opacity:1;paint-order:markers fill stroke" />
  <path
     id="rect820-2-7"
     d="m 38.999947,0 v 7.9999987 c 0,1.4142098 1.585783,2.9999993 2.999996,2.9999993 h 7.999987 z"
     style="fill:#c83771;fill-opacity:1;stroke:none;stroke-width:0.99765784;stroke-linejoin:round;stroke-miterlimit:4;stroke-dasharray:none;stroke-opacity:1;paint-order:markers fill stroke" />
  <rect
     style="fill:#c83771;fill-opacity:1;stroke:none;stroke-width:1.09045708;stroke-linejoin:round;stroke-miterlimit:4;stroke-dasharray:none;stroke-opacity:1;paint-order:markers fill stroke"
     id="rect24"
     width="37.99995"
     height="3.9999995"
     x="5.9999919"
     y="17.999998"
     ry="1.9999998" />
  <rect
     style="fill:#c83771;fill-opacity:1;stroke:none;stroke-width:1.09045708;stroke-linejoin:round;stroke-miterlimit:4;stroke-dasharray:none;stroke-opacity:1;paint-order:markers fill stroke"
     id="rect24-7"
     width="37.999954"
     height="3.9999995"
     x="5.9999919"
     y="25.999996"
     ry="1.9999998" />
  <rect
     style="fill:#c83771;fill-opacity:1;stroke:none;stroke-width:1.09045708;stroke-linejoin:round;stroke-miterlimit:4;stroke-dasharray:none;stroke-opacity:1;paint-order:markers fill stroke"
     id="rect24-1"
     width="37.999954"
     height="3.9999995"
     x="5.9999919"
     y="33.999996"
     ry="1.9999998" />
  <path
     id="path22"
     d="m 19.500033,57.18001 -0.515625,-1.84765 h -3.265625 l -0.529948,1.84765 h -1.747396 l 2.771484,-9.360018 h 2.463542 l 2.771485,9.360018 z m -2.126953,-7.641269 -1.231771,4.35416 h 2.449219 z"
     style="fill:#ffffff;stroke-width:0.99999994" />
  <path
     id="path24"
     d="M 26.682976,57.18001 H 24.34834 l -2.857422,-9.360018 h 1.998047 l 1.582682,5.63606 0.508464,1.847659 0.529948,-1.95508 1.568359,-5.528639 h 1.876302 z"
     style="fill:#ffffff;stroke-width:0.99999994" />
  <path
     id="path26"
     d="m 30.643262,49.259442 v -1.43945 h 5.915365 v 1.43945 h -2.0625 v 6.466799 h 2.0625 v 1.453769 h -5.915365 v -1.453769 h 2.0625 v -6.466799 z"
     style="fill:#ffffff;stroke-width:0.99999994" />
</svg>
