<?xml version="1.0" encoding="UTF-8" standalone="no"?>
<!-- Created with Inkscape (http://www.inkscape.org/) -->
<!-- Created by Yann <rockyracer@mailfence.com> -->

<svg
   xmlns="http://www.w3.org/2000/svg"
   width="60"
   height="60"
   viewBox="0 0 60 60"
   version="1.1"
   id="svg8">
  <path
     style="fill:#e6e6e6;fill-opacity:1;stroke:none;stroke-width:1.04574919;stroke-linejoin:round;stroke-miterlimit:4;stroke-dasharray:none;stroke-opacity:1;paint-order:markers fill stroke"
     d="m 13,0 c -1.414212,0 -3,1.58579 -3,3 v 42 12 c 0,1.4142 1.585804,3 3,3 h 44 c 1.414227,0 3,-1.58577 3,-3 V 45 11 L 49,0 Z"
     id="rect820" />
  <path
     id="rect820-2-7"
     d="m 48.999947,0 v 8 c 0,1.41421 1.585784,3 2.999996,3 h 7.999987 z"
     style="fill:#5a2ca0;fill-opacity:1;stroke:none;stroke-width:0.9976579;stroke-linejoin:round;stroke-miterlimit:4;stroke-dasharray:none;stroke-opacity:1;paint-order:markers fill stroke" />
  <path
     style="fill:#5a2ca0;fill-opacity:1;stroke:none;stroke-width:1.38912702;stroke-linejoin:round;stroke-miterlimit:4;stroke-dasharray:none;stroke-opacity:1;paint-order:markers fill stroke"
     d="m 3,24 h 39 c 1.672043,0 3,1.36511 3,3 v 15 c 0,1.63489 -1.327957,3 -3,3 H 3 C 1.3279575,45 0,43.63489 0,42 V 27 c 0,-1.63489 1.3279575,-3 3,-3 z"
     id="rect824" />
  <path
     d="M 14.51888,40.030926 12.961589,36.476238 Q 12.741537,35.968426 12.34375,35.714519 11.954427,35.45215 11.421224,35.45215 h -0.397786 v 4.578776 H 8.9414063 v -11.06185 h 3.2246097 q 0.914062,0 1.658854,0.160808 0.744792,0.152343 1.269531,0.516276 0.52474,0.363932 0.804037,0.947916 0.28776,0.583985 0.28776,1.430339 0,0.609375 -0.177734,1.083333 -0.177735,0.473959 -0.499349,0.820964 -0.321615,0.338542 -0.770182,0.55013 -0.440105,0.211589 -0.964844,0.296224 0.40625,0.08464 0.744791,0.465495 0.338542,0.372396 0.677084,1.083333 l 1.76888,3.707032 z M 14.002604,32.22754 q 0,-0.8125 -0.516276,-1.167969 -0.516276,-0.355469 -1.548828,-0.355469 h -0.914062 v 3.123047 h 0.846354 q 0.482422,0 0.871745,-0.101562 0.397786,-0.101563 0.677083,-0.304688 0.279297,-0.203125 0.431641,-0.499349 0.152343,-0.304687 0.152343,-0.69401 z"
     id="path819"
     style="fill:#ffffff" />
  <path
     d="M 24.590495,40.030926 23.98112,37.847332 h -3.859375 l -0.626302,2.183594 h -2.065104 l 3.27539,-11.06185 h 2.911459 l 3.27539,11.06185 z m -2.513672,-9.0306 -1.455729,5.145834 h 2.894531 z"
     id="path821"
     style="fill:#ffffff" />
  <path
     d="M 33.61263,40.030926 32.055339,36.476238 Q 31.835287,35.968426 31.4375,35.714519 31.048177,35.45215 30.514974,35.45215 h -0.397786 v 4.578776 h -2.082032 v -11.06185 h 3.22461 q 0.914062,0 1.658854,0.160808 0.744792,0.152343 1.269531,0.516276 0.52474,0.363932 0.804037,0.947916 0.28776,0.583985 0.28776,1.430339 0,0.609375 -0.177734,1.083333 -0.177735,0.473959 -0.499349,0.820964 -0.321615,0.338542 -0.770182,0.55013 -0.440105,0.211589 -0.964844,0.296224 0.40625,0.08464 0.744791,0.465495 0.338542,0.372396 0.677084,1.083333 l 1.76888,3.707032 z M 33.096354,32.22754 q 0,-0.8125 -0.516276,-1.167969 -0.516276,-0.355469 -1.548828,-0.355469 h -0.914062 v 3.123047 h 0.846354 q 0.482422,0 0.871745,-0.101562 0.397786,-0.101563 0.677083,-0.304688 0.279297,-0.203125 0.431641,-0.499349 0.152343,-0.304687 0.152343,-0.69401 z"
     id="path823"
     style="fill:#ffffff" />
</svg>
