<?xml version="1.0" encoding="UTF-8" standalone="no"?>
<!-- Created with Inkscape (http://www.inkscape.org/) -->
<!-- Created by Yann <rockyracer@mailfence.com> -->

<svg
   xmlns="http://www.w3.org/2000/svg"
   width="50"
   height="60"
   viewBox="0 0 50 60"
   version="1.1"
   id="svg8">
  <path
     style="fill:#5a2ca0;fill-opacity:1;stroke:none;stroke-width:0.19999987;stroke-linejoin:round;stroke-miterlimit:4;stroke-dasharray:none;stroke-opacity:1;paint-order:markers fill stroke"
     d="m 6.4999912e-5,45 v 12 c 0,1.4142 1.585734800088,3 2.999930900088,3 H 46.999936 C 48.414164,60 50,58.41423 50,57 V 45 Z"
     id="rect820" />
  <path
     style="fill:#8254c8;fill-opacity:1;stroke:none;stroke-width:1.02156138;stroke-linejoin:round;stroke-miterlimit:4;stroke-dasharray:none;stroke-opacity:1;paint-order:markers fill stroke"
     d="M 2.9999959,0 C 1.5857838,0 0,1.58579 0,3 V 45 H 49.99993 V 11 L 38.999947,0 Z"
     id="rect820-2" />
  <path
     style="fill:#5a2ca0;fill-opacity:1;stroke:none;stroke-width:0.19999987;stroke-linejoin:round;stroke-miterlimit:4;stroke-dasharray:none;stroke-opacity:1;paint-order:markers fill stroke"
     d="m 38.999947,0 v 8 c 0,1.41421 1.585784,3 2.999996,3 h 7.999987 z"
     id="rect820-2-7" />
  <rect
     ry="2"
     y="18"
     x="5.9999919"
     height="4"
     width="37.999947"
     id="rect24"
     style="fill:#5a2ca0;fill-opacity:1;stroke:none;stroke-width:0.19999987;stroke-linejoin:round;stroke-miterlimit:4;stroke-dasharray:none;stroke-opacity:1;paint-order:markers fill stroke" />
  <rect
     ry="2"
     y="26"
     x="5.9999919"
     height="4"
     width="37.99995"
     id="rect24-7"
     style="fill:#5a2ca0;fill-opacity:1;stroke:none;stroke-width:0.19999987;stroke-linejoin:round;stroke-miterlimit:4;stroke-dasharray:none;stroke-opacity:1;paint-order:markers fill stroke" />
  <rect
     ry="2"
     y="34"
     x="5.9999919"
     height="4"
     width="37.99995"
     id="rect24-1"
     style="fill:#5a2ca0;fill-opacity:1;stroke:none;stroke-width:0.19999987;stroke-linejoin:round;stroke-miterlimit:4;stroke-dasharray:none;stroke-opacity:1;paint-order:markers fill stroke" />
  <path
     id="path22"
     d="m 18.246777,57.18002 -1.317708,-3.00781 q -0.186198,-0.42969 -0.522786,-0.64453 -0.329428,-0.22201 -0.780599,-0.22201 h -0.336589 v 3.87435 H 13.527376 V 47.82 h 2.728516 q 0.773437,0 1.403646,0.13606 0.630208,0.12891 1.074219,0.43685 0.44401,0.30795 0.680338,0.80209 0.24349,0.49414 0.24349,1.21028 0,0.51563 -0.150391,0.91667 -0.150391,0.40104 -0.422526,0.69466 -0.272135,0.28646 -0.651693,0.4655 -0.372396,0.17903 -0.816406,0.25065 0.34375,0.0716 0.630208,0.39388 0.286459,0.3151 0.572917,0.91666 l 1.496745,3.13672 z m -0.436849,-6.60286 q 0,-0.6875 -0.436849,-0.98828 Q 16.93623,49.2881 16.062532,49.2881 h -0.773437 v 2.64257 h 0.716146 q 0.408203,0 0.73763,-0.0859 0.336589,-0.0859 0.572917,-0.25782 0.236328,-0.17187 0.365234,-0.42252 0.128906,-0.25781 0.128906,-0.58724 z"
     style="fill:#ffffff" />
  <path
     id="path24"
     d="m 26.768913,57.18002 -0.515625,-1.84765 h -3.265625 l -0.529948,1.84765 H 20.710319 L 23.481803,47.82 h 2.463542 l 2.771484,9.36002 z m -2.126953,-7.64127 -1.231771,4.35416 h 2.449219 z"
     style="fill:#ffffff" />
  <path
     id="path26"
     d="m 34.403027,57.18002 -1.317708,-3.00781 q -0.186198,-0.42969 -0.522786,-0.64453 -0.329428,-0.22201 -0.780599,-0.22201 h -0.336589 v 3.87435 H 29.683626 V 47.82 h 2.728516 q 0.773437,0 1.403646,0.13606 0.630208,0.12891 1.074219,0.43685 0.44401,0.30795 0.680338,0.80209 0.24349,0.49414 0.24349,1.21028 0,0.51563 -0.150391,0.91667 -0.150391,0.40104 -0.422526,0.69466 -0.272135,0.28646 -0.651693,0.4655 -0.372396,0.17903 -0.816406,0.25065 0.34375,0.0716 0.630208,0.39388 0.286459,0.3151 0.572917,0.91666 l 1.496745,3.13672 z m -0.436849,-6.60286 q 0,-0.6875 -0.436849,-0.98828 Q 33.09248,49.2881 32.218782,49.2881 h -0.773437 v 2.64257 h 0.716146 q 0.408203,0 0.73763,-0.0859 0.336589,-0.0859 0.572917,-0.25782 0.236328,-0.17187 0.365234,-0.42252 0.128906,-0.25781 0.128906,-0.58724 z"
     style="fill:#ffffff" />
</svg>
