<?xml version="1.0" encoding="UTF-8" standalone="no"?>
<!-- Created with Inkscape (http://www.inkscape.org/) -->
<!-- Created by Yann <rockyracer@mailfence.com> -->

<svg
   xmlns="http://www.w3.org/2000/svg"
   width="50"
   height="60"
   viewBox="0 0 50 60"
   version="1.1"
   id="svg8">
  <path
     style="fill:#e65a00;fill-opacity:1;stroke:none;stroke-width:1.04574919;stroke-linejoin:round;stroke-miterlimit:4;stroke-dasharray:none;stroke-opacity:1;paint-order:markers fill stroke"
     d="m 6.4999912e-5,45 v 12 c 0,1.4142 1.585734800088,3 2.999930900088,3 H 46.999936 C 48.414164,60 50,58.41423 50,57 V 45 Z"
     id="rect820" />
  <path
     style="fill:#ff8c32;fill-opacity:1;stroke:none;stroke-width:1.02156138;stroke-linejoin:round;stroke-miterlimit:4;stroke-dasharray:none;stroke-opacity:1;paint-order:markers fill stroke"
     d="M 2.9999959,0 C 1.5857838,0 0,1.58579 0,3 V 45 H 49.99993 V 11 L 38.999947,0 Z"
     id="rect820-2" />
  <path
     style="fill:#e66400;fill-opacity:1;stroke:none;stroke-width:0.9976579;stroke-linejoin:round;stroke-miterlimit:4;stroke-dasharray:none;stroke-opacity:1;paint-order:markers fill stroke"
     d="m 38.999947,0 v 8 c 0,1.41421 1.585784,3 2.999996,3 h 7.999987 z"
     id="rect820-2-7" />
  <rect
     ry="2"
     y="18"
     x="5.9999919"
     height="4"
     width="37.999947"
     id="rect24"
     style="fill:#e66400;fill-opacity:1;stroke:none;stroke-width:1.0904572;stroke-linejoin:round;stroke-miterlimit:4;stroke-dasharray:none;stroke-opacity:1;paint-order:markers fill stroke" />
  <rect
     ry="2"
     y="26"
     x="5.9999919"
     height="4"
     width="37.99995"
     id="rect24-7"
     style="fill:#e66400;fill-opacity:1;stroke:none;stroke-width:1.0904572;stroke-linejoin:round;stroke-miterlimit:4;stroke-dasharray:none;stroke-opacity:1;paint-order:markers fill stroke" />
  <rect
     ry="2"
     y="34"
     x="5.9999919"
     height="4"
     width="37.99995"
     id="rect24-1"
     style="fill:#e66400;fill-opacity:1;stroke:none;stroke-width:1.0904572;stroke-linejoin:round;stroke-miterlimit:4;stroke-dasharray:none;stroke-opacity:1;paint-order:markers fill stroke" />
  <path
     id="path22"
     d="m 20.151725,50.79916 q 0,0.73047 -0.243489,1.35352 -0.24349,0.61588 -0.723308,1.06706 -0.479817,0.45117 -1.195963,0.70182 -0.716146,0.25065 -1.661459,0.25065 h -0.895182 v 3.00781 H 13.656282 V 47.82 h 2.742839 q 0.909505,0 1.604167,0.20052 0.701823,0.19336 1.174479,0.57291 0.479818,0.37956 0.723307,0.93816 0.250651,0.55143 0.250651,1.26757 z m -1.847656,0.12175 q 0,-0.3724 -0.121745,-0.67318 -0.114583,-0.30794 -0.358073,-0.52279 -0.236328,-0.21484 -0.601562,-0.32942 -0.365235,-0.11459 -0.866537,-0.11459 h -0.923828 v 3.43034 h 0.98112 q 0.458333,0 0.809245,-0.12174 0.350911,-0.12891 0.587239,-0.36524 0.24349,-0.23632 0.365235,-0.56575 0.128906,-0.32943 0.128906,-0.73763 z"
     style="fill:#ffffff" />
  <path
     id="path24"
     d="m 28.22985,50.79916 q 0,0.73047 -0.243489,1.35352 -0.24349,0.61588 -0.723308,1.06706 -0.479817,0.45117 -1.195963,0.70182 -0.716146,0.25065 -1.661459,0.25065 h -0.895182 v 3.00781 H 21.734407 V 47.82 h 2.742839 q 0.909505,0 1.604167,0.20052 0.701823,0.19336 1.174479,0.57291 0.479818,0.37956 0.723307,0.93816 0.250651,0.55143 0.250651,1.26757 z m -1.847656,0.12175 q 0,-0.3724 -0.121745,-0.67318 -0.114583,-0.30794 -0.358073,-0.52279 -0.236328,-0.21484 -0.601562,-0.32942 -0.365235,-0.11459 -0.866537,-0.11459 h -0.923828 v 3.43034 h 0.98112 q 0.458333,0 0.809245,-0.12174 0.350911,-0.12891 0.587239,-0.36524 0.24349,-0.23632 0.365235,-0.56575 0.128906,-0.32943 0.128906,-0.73763 z"
     style="fill:#ffffff" />
  <path
     id="path26"
     d="m 33.77998,49.2881 v 7.89192 H 31.975293 V 49.2881 H 29.411491 V 47.82 h 6.932292 v 1.4681 z"
     style="fill:#ffffff" />
</svg>
