<?xml version="1.0" encoding="UTF-8" standalone="no"?>
<!-- Created with Inkscape (http://www.inkscape.org/) -->
<!-- Created by Yann <rockyracer@mailfence.com> -->

<svg
   xmlns="http://www.w3.org/2000/svg"
   width="60"
   height="60"
   viewBox="0 0 60 60"
   version="1.1"
   id="svg8">
  <path
     style="fill:#e6e6e6;fill-opacity:1;stroke:none;stroke-width:1.04574919;stroke-linejoin:round;stroke-miterlimit:4;stroke-dasharray:none;stroke-opacity:1;paint-order:markers fill stroke"
     d="m 13,0 c -1.414212,0 -3,1.58579 -3,3 v 42 12 c 0,1.4142 1.585804,3 3,3 h 44 c 1.414227,0 3,-1.58577 3,-3 V 45 11 L 49,0 Z"
     id="rect820" />
  <path
     id="rect820-2-7"
     d="m 48.999947,0 v 8 c 0,1.41421 1.585784,3 2.999996,3 h 7.999987 z"
     style="fill:#325aa0;fill-opacity:1;stroke:none;stroke-width:0.9976579;stroke-linejoin:round;stroke-miterlimit:4;stroke-dasharray:none;stroke-opacity:1;paint-order:markers fill stroke" />
  <path
     style="fill:#325aa0;fill-opacity:1;stroke:none;stroke-width:1.38912702;stroke-linejoin:round;stroke-miterlimit:4;stroke-dasharray:none;stroke-opacity:1;paint-order:markers fill stroke"
     d="m 3,24 h 39 c 1.672043,0 3,1.36511 3,3 v 15 c 0,1.63489 -1.327957,3 -3,3 H 3 C 1.3279575,45 0,43.63489 0,42 V 27 c 0,-1.63489 1.3279575,-3 3,-3 z"
     id="rect824" />
  <path
     d="m 17.421875,34.356118 q 0,1.286459 -0.321615,2.335938 -0.313151,1.049479 -0.990234,1.794271 -0.66862,0.736328 -1.718099,1.142578 -1.04948,0.397786 -2.513672,0.397786 H 9.0683588 V 28.964842 H 12.34375 q 1.269531,0 2.217448,0.321615 0.95638,0.313151 1.591145,0.973307 0.634766,0.660156 0.947917,1.675781 0.321615,1.015625 0.321615,2.420573 z M 15.1875,34.491535 q 0,-0.897135 -0.143881,-1.599609 -0.14388,-0.702474 -0.490885,-1.184896 -0.338542,-0.490886 -0.914063,-0.744792 -0.57552,-0.253906 -1.430338,-0.253906 H 11.15039 v 7.57487 h 0.914063 q 1.531901,0 2.327474,-0.914063 0.795573,-0.914062 0.795573,-2.877604 z"
     id="path822"
     style="fill:#ffffff" />
  <path
     d="m 27.104166,34.449217 q 0,1.506511 -0.355468,2.598308 -0.347006,1.091797 -0.964844,1.794271 -0.609375,0.702474 -1.438802,1.041015 -0.820964,0.338542 -1.760417,0.338542 -2.183594,0 -3.283854,-1.447266 -1.100261,-1.455729 -1.100261,-4.223307 0,-1.506511 0.347005,-2.598308 0.355469,-1.091797 0.964844,-1.794271 0.617839,-0.702473 1.438802,-1.041015 0.829427,-0.338542 1.768881,-0.338542 2.183593,0 3.283854,1.447266 1.10026,1.447266 1.10026,4.223307 z m -2.200521,0.101563 q 0,-1.963542 -0.524739,-2.928386 -0.52474,-0.964844 -1.726563,-0.964844 -0.600911,0 -1.024088,0.253907 -0.423177,0.245442 -0.702474,0.727864 -0.270834,0.482422 -0.397787,1.19336 -0.126953,0.702474 -0.126953,1.616536 0,1.963542 0.52474,2.928386 0.533203,0.964844 1.726562,0.964844 0.600912,0 1.024089,-0.245443 0.431641,-0.253906 0.702474,-0.736328 0.270833,-0.482422 0.397786,-1.184896 0.126953,-0.710938 0.126953,-1.625 z"
     id="path824"
     style="fill:#ffffff" />
  <path
     d="m 35.93164,39.595051 q -0.736328,0.296224 -1.430338,0.440104 -0.685547,0.14388 -1.430339,0.14388 -1.193359,0 -2.115885,-0.347005 -0.914063,-0.355469 -1.548829,-1.049479 -0.626302,-0.694011 -0.95638,-1.718099 -0.321614,-1.032552 -0.321614,-2.395183 0,-1.396484 0.355468,-2.479817 0.355469,-1.091797 1.015625,-1.836589 0.660157,-0.753255 1.59961,-1.142578 0.947917,-0.397787 2.124349,-0.397787 0.380859,0 0.710937,0.01693 0.338542,0.01693 0.660157,0.06771 0.321614,0.04232 0.651692,0.118489 0.330079,0.07617 0.685547,0.194662 v 2.065104 q -0.719401,-0.338542 -1.371093,-0.482422 -0.651693,-0.14388 -1.184896,-0.14388 -0.78711,0 -1.345704,0.28776 -0.558593,0.279297 -0.922526,0.795573 -0.355468,0.507813 -0.524739,1.21875 -0.169271,0.702474 -0.169271,1.548829 0,0.897135 0.169271,1.608073 0.177734,0.702473 0.541666,1.193359 0.363933,0.490885 0.93099,0.753255 0.567057,0.253906 1.345703,0.253906 0.279297,0 0.600912,-0.05078 0.330078,-0.05924 0.660156,-0.14388 0.338542,-0.0931 0.660156,-0.211589 0.330078,-0.126953 0.609375,-0.253906 z"
     id="path826"
     style="fill:#ffffff" />
</svg>
