<?xml version="1.0" encoding="UTF-8" standalone="no"?>
<!-- Created with Inkscape (http://www.inkscape.org/) -->
<!-- Created by Yann <rockyracer@mailfence.com> -->

<svg
   xmlns="http://www.w3.org/2000/svg"
   width="60"
   height="60"
   viewBox="0 0 60 60"
   version="1.1"
   id="svg8">
  <path
     style="fill:#e6e6e6;fill-opacity:1;stroke:none;stroke-width:1.04574919;stroke-linejoin:round;stroke-miterlimit:4;stroke-dasharray:none;stroke-opacity:1;paint-order:markers fill stroke"
     d="m 13,0 c -1.414212,0 -3,1.58579 -3,3 v 42 12 c 0,1.4142 1.585804,3 3,3 h 44 c 1.414227,0 3,-1.58577 3,-3 V 45 11 L 49,0 Z"
     id="rect820" />
  <path
     id="rect820-2-7"
     d="m 48.999947,0 v 8 c 0,1.41421 1.585784,3 2.999996,3 h 7.999987 z"
     style="fill:#2ca02c;fill-opacity:1;stroke:none;stroke-width:0.9976579;stroke-linejoin:round;stroke-miterlimit:4;stroke-dasharray:none;stroke-opacity:1;paint-order:markers fill stroke" />
  <path
     style="fill:#2ca02c;fill-opacity:1;stroke:none;stroke-width:1.38912702;stroke-linejoin:round;stroke-miterlimit:4;stroke-dasharray:none;stroke-opacity:1;paint-order:markers fill stroke"
     d="m 3,24 h 39 c 1.672043,0 3,1.36511 3,3 v 15 c 0,1.63489 -1.327957,3 -3,3 H 3 C 1.3279575,45 0,43.63489 0,42 V 27 c 0,-1.63489 1.3279575,-3 3,-3 z"
     id="rect824" />
  <path
     d="m 15.416016,40.026691 -2.132813,-4.070963 -2.098958,4.070963 H 8.6705726 L 11.861328,34.356118 8.8821612,28.964842 h 2.4459638 l 2.005859,3.850912 1.938151,-3.850912 h 2.445964 l -2.96224,5.391276 3.309245,5.670573 z"
     id="path819"
     style="fill:#ffffff" />
  <path
     d="M 19.817057,40.026691 V 28.964842 h 2.115886 v 9.276042 h 4.671875 v 1.785807 z"
     id="path821"
     style="fill:#ffffff" />
  <path
     d="m 36.329427,36.683592 q 0,0.905599 -0.338542,1.574219 -0.330078,0.66862 -0.930989,1.108724 -0.600912,0.431641 -1.430339,0.643229 -0.829427,0.211589 -1.811198,0.211589 -0.871745,0 -1.684245,-0.101563 -0.8125,-0.101562 -1.608073,-0.338541 v -2.056641 q 0.389323,0.135417 0.8125,0.253906 0.423178,0.11849 0.846355,0.211589 0.43164,0.08463 0.854817,0.135416 0.423177,0.05078 0.820964,0.05078 0.592448,0 1.007161,-0.101563 0.414714,-0.101562 0.677084,-0.279297 0.26237,-0.177734 0.380859,-0.423177 0.11849,-0.245442 0.11849,-0.541666 0,-0.40625 -0.236979,-0.677084 -0.228516,-0.279297 -0.609375,-0.490885 -0.38086,-0.211589 -0.871745,-0.38086 -0.482422,-0.16927 -0.990235,-0.363932 -0.499349,-0.194661 -0.990234,-0.440104 -0.482422,-0.245443 -0.863281,-0.609375 -0.38086,-0.363932 -0.617839,-0.863281 -0.228516,-0.507813 -0.228516,-1.21875 0,-0.651693 0.23698,-1.235678 0.236979,-0.583984 0.744791,-1.015625 0.507813,-0.440104 1.303386,-0.69401 0.795573,-0.26237 1.921224,-0.26237 0.330078,0 0.685547,0.03385 0.363932,0.02539 0.710937,0.07617 0.355469,0.04232 0.677084,0.110026 0.330078,0.05925 0.600911,0.126953 v 1.904297 q -0.270833,-0.101562 -0.592448,-0.186198 -0.321614,-0.08464 -0.66862,-0.14388 -0.338541,-0.06771 -0.685547,-0.101562 -0.347005,-0.03385 -0.660156,-0.03385 -0.55013,0 -0.930989,0.0931 -0.38086,0.08464 -0.626303,0.245443 -0.245442,0.152344 -0.355468,0.38086 -0.110026,0.228515 -0.110026,0.507812 0,0.347005 0.228515,0.600912 0.236979,0.245442 0.617839,0.448567 0.389323,0.194662 0.871745,0.372396 0.490885,0.169271 0.998698,0.372396 0.516276,0.194661 0.998698,0.448568 0.490885,0.253906 0.871744,0.617838 0.389323,0.363933 0.617839,0.863282 0.236979,0.490885 0.236979,1.167968 z"
     id="path823"
     style="fill:#ffffff" />
</svg>
