<?xml version="1.0" encoding="UTF-8" standalone="no"?>
<!-- Created with Inkscape (http://www.inkscape.org/) -->
<!-- Created by Yann <rockyracer@mailfence.com> -->

<svg
   xmlns="http://www.w3.org/2000/svg"
   width="60"
   height="60"
   viewBox="0 0 60 60"
   version="1.1"
   id="svg8">
  <path
     style="fill:#e6e6e6;fill-opacity:1;stroke:none;stroke-width:1.04574919;stroke-linejoin:round;stroke-miterlimit:4;stroke-dasharray:none;stroke-opacity:1;paint-order:markers fill stroke"
     d="m 13,0 c -1.414212,0 -3,1.58579 -3,3 v 42 12 c 0,1.4142 1.585804,3 3,3 h 44 c 1.414227,0 3,-1.58577 3,-3 V 45 11 L 49,0 Z"
     id="rect820" />
  <path
     id="rect820-2-7"
     d="m 48.999947,0 v 8 c 0,1.41421 1.585784,3 2.999996,3 h 7.999987 z"
     style="fill:#00aa96;fill-opacity:1;stroke:none;stroke-width:0.9976579;stroke-linejoin:round;stroke-miterlimit:4;stroke-dasharray:none;stroke-opacity:1;paint-order:markers fill stroke" />
  <path
     style="fill:#00aa96;fill-opacity:1;stroke:none;stroke-width:1.38912702;stroke-linejoin:round;stroke-miterlimit:4;stroke-dasharray:none;stroke-opacity:1;paint-order:markers fill stroke"
     d="m 3,24 h 39 c 1.672043,0 3,1.36511 3,3 v 15 c 0,1.63489 -1.327957,3 -3,3 H 3 C 1.3279575,45 0,43.63489 0,42 V 27 c 0,-1.63489 1.3279575,-3 3,-3 z"
     id="rect824" />
  <path
     d="m 13.524415,35.346353 v -1.718099 h 3.935547 v 5.899088 q -0.761719,0.355469 -1.591146,0.52474 -0.829427,0.169271 -1.802735,0.169271 -1.151041,0 -2.073568,-0.355469 -0.914062,-0.355469 -1.557291,-1.057943 -0.6432295,-0.702474 -0.9902347,-1.743489 -0.3385417,-1.041016 -0.3385417,-2.41211 0,-1.379557 0.3554688,-2.471354 0.3639323,-1.091797 1.0494796,-1.845052 0.69401,-0.761719 1.692708,-1.159505 1.007162,-0.397787 2.29362,-0.397787 0.761719,0 1.48112,0.135417 0.727864,0.126953 1.447265,0.347005 v 2.056641 q -0.626302,-0.296224 -1.38802,-0.482422 -0.753256,-0.194662 -1.523438,-0.194662 -0.778646,0 -1.379557,0.270834 -0.592448,0.270833 -0.998698,0.770182 -0.397787,0.499349 -0.609375,1.227214 -0.203125,0.727864 -0.203125,1.641927 0,0.880208 0.160807,1.591146 0.160807,0.702474 0.516276,1.201823 0.363932,0.490885 0.93099,0.753255 0.567057,0.26237 1.379557,0.26237 0.194661,0 0.338542,-0.0085 0.14388,-0.01693 0.270833,-0.04232 0.126953,-0.02539 0.236979,-0.05924 0.11849,-0.03385 0.245443,-0.07617 v -2.826823 z"
     id="path819"
     style="fill:#ffffff" />
  <path
     d="m 19.525065,30.666014 v -1.701172 h 6.990886 v 1.701172 h -2.4375 v 7.642578 h 2.4375 v 1.718099 h -6.990886 v -1.718099 h 2.437501 v -7.642578 z"
     id="path821"
     style="fill:#ffffff" />
  <path
     d="m 31.475586,30.725259 v 3.063802 h 4.18099 v 1.709635 h -4.18099 v 4.527995 H 29.359701 V 28.964842 h 6.533854 v 1.760417 z"
     id="path823"
     style="fill:#ffffff" />
</svg>
