<?xml version="1.0" encoding="UTF-8" standalone="no"?>
<!-- Created with Inkscape (http://www.inkscape.org/) -->
<!-- Created by Yann <rockyracer@mailfence.com> -->

<svg
   xmlns="http://www.w3.org/2000/svg"
   width="50"
   height="60"
   viewBox="0 0 50 60"
   version="1.1"
   id="svg8">
  <path
     id="rect820"
     d="m 6.4999911e-5,45 v 12 c 0,1.4142 1.585734800089,3 2.999930900089,3 H 46.999936 C 48.414163,60 50,58.41423 50,57 V 45 Z"
     style="fill:#8a6f91;fill-opacity:1;stroke:none;stroke-width:1.04574919;stroke-linejoin:round;stroke-miterlimit:4;stroke-dasharray:none;stroke-opacity:1;paint-order:markers fill stroke" />
  <path
     id="rect820-2"
     d="M 2.9999959,0 C 1.5857838,0 0,1.58579 0,3 V 45 H 49.99993 V 11 L 38.999947,0 Z"
     style="fill:#c4a6c8;fill-opacity:1;stroke:none;stroke-width:1.02156138;stroke-linejoin:round;stroke-miterlimit:4;stroke-dasharray:none;stroke-opacity:1;paint-order:markers fill stroke" />
  <path
     id="rect820-2-7"
     d="m 38.999947,0 v 8 c 0,1.41421 1.585784,3 2.999996,3 h 7.999987 z"
     style="fill:#8a6f91;fill-opacity:1;stroke:none;stroke-width:0.9976579;stroke-linejoin:round;stroke-miterlimit:4;stroke-dasharray:none;stroke-opacity:1;paint-order:markers fill stroke" />
  <rect
     style="fill:#8a6f91;fill-opacity:1;stroke:none;stroke-width:1.0904572;stroke-linejoin:round;stroke-miterlimit:4;stroke-dasharray:none;stroke-opacity:1;paint-order:markers fill stroke"
     id="rect24"
     width="37.999947"
     height="4"
     x="5.9999919"
     y="18"
     ry="2" />
  <rect
     style="fill:#8a6f91;fill-opacity:1;stroke:none;stroke-width:1.0904572;stroke-linejoin:round;stroke-miterlimit:4;stroke-dasharray:none;stroke-opacity:1;paint-order:markers fill stroke"
     id="rect24-7"
     width="37.99995"
     height="4"
     x="5.9999919"
     y="26"
     ry="2" />
  <rect
     style="fill:#8a6f91;fill-opacity:1;stroke:none;stroke-width:1.0904572;stroke-linejoin:round;stroke-miterlimit:4;stroke-dasharray:none;stroke-opacity:1;paint-order:markers fill stroke"
     id="rect24-1"
     width="37.99995"
     height="4"
     x="5.9999919"
     y="34"
     ry="2" />
  <path
     id="path20"
     d="m 19.070345,57.18002 -0.171875,-5.29231 -0.06445,-2.11263 -0.451172,1.43229 -1.038411,3.18685 h -1.102865 l -0.938151,-3.18685 -0.39388,-1.43229 -0.05013,2.06966 -0.157552,5.33528 H 13.205111 L 13.663444,47.82 h 1.990885 l 0.823568,2.6569 0.39388,1.49674 0.393881,-1.4108 0.866536,-2.74284 h 2.026693 l 0.465495,9.36002 z"
     style="fill:#ffffff" />
  <path
     id="path22"
     d="m 28.42321,50.79916 q 0,0.73047 -0.24349,1.35352 -0.24349,0.61588 -0.723307,1.06706 -0.479818,0.45117 -1.195964,0.70182 -0.716146,0.25065 -1.661458,0.25065 h -0.895182 v 3.00781 H 21.927767 V 47.82 h 2.742838 q 0.909506,0 1.604167,0.20052 0.701823,0.19336 1.174479,0.57291 0.479818,0.37956 0.723308,0.93816 0.250651,0.55143 0.250651,1.26757 z m -1.847657,0.12175 q 0,-0.3724 -0.121744,-0.67318 -0.114584,-0.30794 -0.358073,-0.52279 -0.236328,-0.21484 -0.601563,-0.32942 -0.365234,-0.11459 -0.866536,-0.11459 h -0.923828 v 3.43034 h 0.981119 q 0.458334,0 0.809245,-0.12174 0.350912,-0.12891 0.58724,-0.36524 0.243489,-0.23632 0.365234,-0.56575 0.128906,-0.32943 0.128906,-0.73763 z"
     style="fill:#ffffff" />
  <path
     id="path24"
     d="m 35.376986,55.27508 v 1.90494 H 33.672559 V 55.27508 H 29.318392 V 53.77833 L 32.970736,47.82 h 2.40625 v 5.91536 h 1.417968 v 1.53972 z M 33.694043,49.5101 31.02998,53.73536 h 2.664063 z"
     style="fill:#ffffff" />
</svg>
