<?xml version="1.0" encoding="UTF-8" standalone="no"?>
<!-- Created with Inkscape (http://www.inkscape.org/) -->
<!-- Created by Yann <rockyracer@mailfence.com> -->

<svg
   xmlns:dc="http://purl.org/dc/elements/1.1/"
   xmlns:cc="http://creativecommons.org/ns#"
   xmlns:rdf="http://www.w3.org/1999/02/22-rdf-syntax-ns#"
   xmlns:svg="http://www.w3.org/2000/svg"
   xmlns="http://www.w3.org/2000/svg"
   xmlns:sodipodi="http://sodipodi.sourceforge.net/DTD/sodipodi-0.dtd"
   xmlns:inkscape="http://www.inkscape.org/namespaces/inkscape"
   width="50"
   height="60"
   viewBox="0 0 50 60"
   version="1.1"
   id="svg8"
   inkscape:version="0.92.2 (5c3e80d, 2017-08-06)"
   sodipodi:docname="icon-file-a-xls.svg">
  <defs
     id="defs2" />
  <metadata
     id="metadata5">
    <rdf:RDF>
      <cc:Work
         rdf:about="">
        <dc:format>image/svg+xml</dc:format>
        <dc:type
           rdf:resource="http://purl.org/dc/dcmitype/StillImage" />
        <cc:license
           rdf:resource="http://www.wtfpl.net/" />
        <dc:creator>
          <cc:Agent>
            <dc:title>Yann - rockyracer@mailfence.com</dc:title>
          </cc:Agent>
        </dc:creator>
        <dc:title />
      </cc:Work>
    </rdf:RDF>
  </metadata>
  <g
     inkscape:label="Layer 1"
     inkscape:groupmode="layer"
     id="layer1"
     transform="translate(0,-237)">
    <path
       style="fill:#2ca02c;fill-opacity:1;stroke:none;stroke-width:1.04574919;stroke-linejoin:round;stroke-miterlimit:4;stroke-dasharray:none;stroke-opacity:1;paint-order:markers fill stroke"
       d="m 6.4999912e-5,282 v 12 c 0,1.4142 1.585734800088,3 2.999930900088,3 H 46.999936 C 48.414164,297 50,295.41423 50,294 v -12 z"
       id="rect820"
       inkscape:connector-curvature="0"
       sodipodi:nodetypes="csssscc" />
    <path
       inkscape:connector-curvature="0"
       style="fill:#64c864;fill-opacity:1;stroke:none;stroke-width:1.02156138;stroke-linejoin:round;stroke-miterlimit:4;stroke-dasharray:none;stroke-opacity:1;paint-order:markers fill stroke"
       d="M 2.9999959,237 C 1.5857838,237 0,238.58579 0,240 v 42 H 49.99993 V 248 L 38.999947,237 Z"
       id="rect820-2"
       sodipodi:nodetypes="ssccccs" />
    <path
       inkscape:connector-curvature="0"
       style="fill:#2ca02c;fill-opacity:1;stroke:none;stroke-width:0.9976579;stroke-linejoin:round;stroke-miterlimit:4;stroke-dasharray:none;stroke-opacity:1;paint-order:markers fill stroke"
       d="m 38.999947,237 v 8 c 0,1.41421 1.585784,3 2.999996,3 h 7.999987 z"
       id="rect820-2-7"
       sodipodi:nodetypes="csscc" />
    <rect
       ry="2"
       y="255"
       x="5.9999919"
       height="4"
       width="37.999947"
       id="rect24"
       style="fill:#2ca02c;fill-opacity:1;stroke:none;stroke-width:1.0904572;stroke-linejoin:round;stroke-miterlimit:4;stroke-dasharray:none;stroke-opacity:1;paint-order:markers fill stroke" />
    <rect
       ry="2"
       y="263"
       x="5.9999919"
       height="4"
       width="37.99995"
       id="rect24-7"
       style="fill:#2ca02c;fill-opacity:1;stroke:none;stroke-width:1.0904572;stroke-linejoin:round;stroke-miterlimit:4;stroke-dasharray:none;stroke-opacity:1;paint-order:markers fill stroke" />
    <rect
       ry="2"
       y="271"
       x="5.9999919"
       height="4"
       width="37.99995"
       id="rect24-1"
       style="fill:#2ca02c;fill-opacity:1;stroke:none;stroke-width:1.0904572;stroke-linejoin:round;stroke-miterlimit:4;stroke-dasharray:none;stroke-opacity:1;paint-order:markers fill stroke" />
    <path
       inkscape:connector-curvature="0"
       id="path22"
       d="m 19.005892,294.17642 -1.804687,-3.44466 -1.776042,3.44466 H 13.29821 l 2.69987,-4.79818 -2.520834,-4.56184 h 2.069662 l 1.697265,3.25846 1.639974,-3.25846 h 2.069662 l -2.506511,4.56184 2.800131,4.79818 z"
       style="fill:#ffffff" />
    <path
       inkscape:connector-curvature="0"
       id="path24"
       d="m 22.72985,294.17642 v -9.36002 h 1.790365 v 7.84895 h 3.953125 v 1.51107 z"
       style="fill:#ffffff" />
    <path
       inkscape:connector-curvature="0"
       id="path26"
       d="m 36.701856,291.34765 q 0,0.76627 -0.286459,1.33203 -0.279296,0.56575 -0.78776,0.93815 -0.508464,0.36523 -1.210286,0.54427 -0.701823,0.17904 -1.532553,0.17904 -0.73763,0 -1.42513,-0.0859 -0.6875,-0.0859 -1.360677,-0.28646 v -1.74023 q 0.329427,0.11458 0.6875,0.21484 0.358073,0.10026 0.716146,0.17904 0.365234,0.0716 0.723307,0.11458 0.358073,0.043 0.694662,0.043 0.501302,0 0.852213,-0.0859 0.350912,-0.0859 0.572917,-0.23633 0.222005,-0.15039 0.322266,-0.35807 0.10026,-0.20768 0.10026,-0.45833 0,-0.34375 -0.200521,-0.57292 -0.193359,-0.23633 -0.515625,-0.41537 -0.322265,-0.17903 -0.73763,-0.32226 -0.408203,-0.14323 -0.837891,-0.30794 -0.422526,-0.16472 -0.83789,-0.3724 -0.408203,-0.20768 -0.730469,-0.51562 -0.322266,-0.30795 -0.522787,-0.73047 -0.193359,-0.42969 -0.193359,-1.03125 0,-0.55144 0.200521,-1.04558 0.200521,-0.49414 0.630208,-0.85937 0.429688,-0.3724 1.102865,-0.58724 0.673177,-0.22201 1.625651,-0.22201 0.279297,0 0.580078,0.0287 0.307943,0.0215 0.601563,0.0644 0.300781,0.0358 0.572916,0.0931 0.279297,0.0501 0.508464,0.10742 v 1.61133 q -0.229167,-0.0859 -0.501302,-0.15755 -0.272136,-0.0716 -0.565756,-0.12175 -0.286458,-0.0573 -0.580078,-0.0859 -0.293619,-0.0286 -0.558593,-0.0286 -0.465495,0 -0.787761,0.0788 -0.322265,0.0716 -0.529948,0.20768 -0.207682,0.12891 -0.300781,0.32227 -0.0931,0.19335 -0.0931,0.42968 0,0.29362 0.193359,0.50847 0.200521,0.20768 0.522787,0.37955 0.329427,0.16472 0.73763,0.31511 0.415365,0.14323 0.845052,0.3151 0.436849,0.16472 0.845052,0.37956 0.415365,0.21484 0.737631,0.52279 0.329427,0.30794 0.522786,0.73046 0.200521,0.41537 0.200521,0.98829 z"
       style="fill:#ffffff" />
  </g>
</svg>
