<?xml version="1.0" encoding="UTF-8" standalone="no"?>
<!-- Created with Inkscape (http://www.inkscape.org/) -->
<!-- Created by Yann <rockyracer@mailfence.com> -->

<svg
   xmlns="http://www.w3.org/2000/svg"
   width="50"
   height="60"
   viewBox="0 0 50 60"
   version="1.1"
   id="svg8">
  <path
     id="rect820"
     d="m 6.4999912e-5,45 v 12 c 0,1.4142 1.585734800088,3 2.999930900088,3 H 46.999936 C 48.414164,60 50,58.41423 50,57 V 45 Z"
     style="fill:#c83737;fill-opacity:1;stroke:none;stroke-width:1.04574919;stroke-linejoin:round;stroke-miterlimit:4;stroke-dasharray:none;stroke-opacity:1;paint-order:markers fill stroke" />
  <path
     id="rect820-2"
     d="M 2.9999959,0 C 1.5857838,0 0,1.58579 0,3 V 45 H 49.99993 V 11 L 38.999947,0 Z"
     style="fill:#f06f6f;fill-opacity:0.98941806;stroke:none;stroke-width:1.02156138;stroke-linejoin:round;stroke-miterlimit:4;stroke-dasharray:none;stroke-opacity:1;paint-order:markers fill stroke" />
  <path
     id="rect820-2-7"
     d="m 38.999947,0 v 8 c 0,1.41421 1.585784,3 2.999996,3 h 7.999987 z"
     style="fill:#c83737;fill-opacity:1;stroke:none;stroke-width:0.9976579;stroke-linejoin:round;stroke-miterlimit:4;stroke-dasharray:none;stroke-opacity:1;paint-order:markers fill stroke" />
  <rect
     ry="2"
     y="26"
     x="5.8708186"
     height="4"
     width="37.999954"
     id="rect24-7"
     style="fill:#c83737;fill-opacity:1;stroke:none;stroke-width:1.0904572;stroke-linejoin:round;stroke-miterlimit:4;stroke-dasharray:none;stroke-opacity:1;paint-order:markers fill stroke" />
  <rect
     ry="2"
     y="34"
     x="5.8708186"
     height="4"
     width="37.999954"
     id="rect24-1"
     style="fill:#c83737;fill-opacity:1;stroke:none;stroke-width:1.0904572;stroke-linejoin:round;stroke-miterlimit:4;stroke-dasharray:none;stroke-opacity:1;paint-order:markers fill stroke" />
  <rect
     ry="2"
     y="17.999985"
     x="5.8708186"
     height="4"
     width="37.99995"
     id="rect24"
     style="fill:#c83737;fill-opacity:1;stroke:none;stroke-width:1.0904572;stroke-linejoin:round;stroke-miterlimit:4;stroke-dasharray:none;stroke-opacity:1;paint-order:markers fill stroke" />
  <path
     id="path19"
     d="m 20.477572,50.79916 q 0,0.73047 -0.24349,1.35352 -0.243489,0.61588 -0.723307,1.06706 -0.479818,0.45117 -1.195963,0.70182 -0.716146,0.25065 -1.661459,0.25065 h -0.895182 v 3.00781 H 13.982129 V 47.82 h 2.742839 q 0.909505,0 1.604166,0.20052 0.701823,0.19336 1.17448,0.57291 0.479817,0.37956 0.723307,0.93816 0.250651,0.55143 0.250651,1.26757 z m -1.847656,0.12175 q 0,-0.3724 -0.121745,-0.67318 -0.114583,-0.30794 -0.358073,-0.52279 -0.236328,-0.21484 -0.601563,-0.32942 -0.365234,-0.11459 -0.866536,-0.11459 h -0.923828 v 3.43034 h 0.98112 q 0.458333,0 0.809244,-0.12174 0.350912,-0.12891 0.58724,-0.36524 0.24349,-0.23632 0.365234,-0.56575 0.128907,-0.32943 0.128907,-0.73763 z"
     style="fill:#ffffff" />
  <path
     id="path21"
     d="m 28.777702,52.38185 q 0,1.08854 -0.272135,1.97656 -0.264974,0.88802 -0.837891,1.51823 -0.565755,0.62304 -1.453776,0.96679 -0.888021,0.33659 -2.126953,0.33659 H 21.709343 V 47.82 h 2.771484 q 1.074219,0 1.876302,0.27213 0.809245,0.26498 1.346354,0.82357 0.53711,0.55859 0.802084,1.41797 0.272135,0.85937 0.272135,2.04818 z m -1.890625,0.11458 q 0,-0.75912 -0.121745,-1.35352 -0.121744,-0.5944 -0.415364,-1.0026 -0.286459,-0.41537 -0.773438,-0.63021 -0.486979,-0.21484 -1.210286,-0.21484 h -0.895183 v 6.4095 h 0.773438 q 1.296224,0 1.969401,-0.77343 0.673177,-0.77344 0.673177,-2.4349 z"
     style="fill:#ffffff" />
  <path
     id="path23"
     d="m 32.279655,49.30958 v 2.59245 h 3.537761 v 1.44661 h -3.537761 v 3.83138 H 30.489291 V 47.82 h 5.528646 v 1.48958 z"
     style="fill:#ffffff" />
</svg>
