<?xml version="1.0" encoding="UTF-8" standalone="no"?>
<!-- Created with Inkscape (http://www.inkscape.org/) -->
<!-- Created by Yann <rockyracer@mailfence.com> -->

<svg
   xmlns:dc="http://purl.org/dc/elements/1.1/"
   xmlns:cc="http://creativecommons.org/ns#"
   xmlns:rdf="http://www.w3.org/1999/02/22-rdf-syntax-ns#"
   xmlns:svg="http://www.w3.org/2000/svg"
   xmlns="http://www.w3.org/2000/svg"
   xmlns:sodipodi="http://sodipodi.sourceforge.net/DTD/sodipodi-0.dtd"
   xmlns:inkscape="http://www.inkscape.org/namespaces/inkscape"
   width="50"
   height="60"
   viewBox="0 0 50 60"
   version="1.1"
   id="svg8"
   inkscape:version="0.92.2 (5c3e80d, 2017-08-06)"
   sodipodi:docname="icon-file-a-png.svg">
  <defs
     id="defs2" />
  <metadata
     id="metadata5">
    <rdf:RDF>
      <cc:Work
         rdf:about="">
        <dc:format>image/svg+xml</dc:format>
        <dc:type
           rdf:resource="http://purl.org/dc/dcmitype/StillImage" />
        <cc:license
           rdf:resource="http://www.wtfpl.net/" />
        <dc:creator>
          <cc:Agent>
            <dc:title>Yann - rockyracer@mailfence.com</dc:title>
          </cc:Agent>
        </dc:creator>
        <dc:title />
      </cc:Work>
    </rdf:RDF>
  </metadata>
  <g
     inkscape:label="Layer 1"
     inkscape:groupmode="layer"
     id="layer1"
     transform="translate(0,-237)">
    <path
       style="fill:#96c832;fill-opacity:1;stroke:none;stroke-width:0.19999987;stroke-linejoin:round;stroke-miterlimit:4;stroke-dasharray:none;stroke-opacity:1;paint-order:markers fill stroke"
       d="m 6.4999912e-5,282 v 12 c 0,1.4142 1.585734800088,3 2.999930900088,3 H 46.999936 C 48.414164,297 50,295.41423 50,294 v -12 z"
       id="rect820"
       inkscape:connector-curvature="0"
       sodipodi:nodetypes="csssscc" />
    <path
       inkscape:connector-curvature="0"
       style="fill:#bee650;fill-opacity:1;stroke:none;stroke-width:1.02156138;stroke-linejoin:round;stroke-miterlimit:4;stroke-dasharray:none;stroke-opacity:1;paint-order:markers fill stroke"
       d="M 2.9999959,237 C 1.5857838,237 0,238.58579 0,240 v 42 H 49.99993 V 248 L 38.999947,237 Z"
       id="rect820-2"
       sodipodi:nodetypes="ssccccs" />
    <path
       inkscape:connector-curvature="0"
       style="fill:#96c832;fill-opacity:1;stroke:none;stroke-width:0.19999987;stroke-linejoin:round;stroke-miterlimit:4;stroke-dasharray:none;stroke-opacity:1;paint-order:markers fill stroke"
       d="m 38.999947,237 v 8 c 0,1.41421 1.585784,3 2.999996,3 h 7.999987 z"
       id="rect820-2-7"
       sodipodi:nodetypes="csscc" />
    <rect
       ry="2"
       y="255"
       x="5.9999919"
       height="4"
       width="37.999947"
       id="rect24"
       style="fill:#96c832;fill-opacity:1;stroke:none;stroke-width:0.19999987;stroke-linejoin:round;stroke-miterlimit:4;stroke-dasharray:none;stroke-opacity:1;paint-order:markers fill stroke" />
    <rect
       ry="2"
       y="263"
       x="5.9999919"
       height="4"
       width="37.99995"
       id="rect24-7"
       style="fill:#96c832;fill-opacity:1;stroke:none;stroke-width:0.19999987;stroke-linejoin:round;stroke-miterlimit:4;stroke-dasharray:none;stroke-opacity:1;paint-order:markers fill stroke" />
    <rect
       ry="2"
       y="271"
       x="5.9999919"
       height="4"
       width="37.99995"
       id="rect24-1"
       style="fill:#96c832;fill-opacity:1;stroke:none;stroke-width:0.19999987;stroke-linejoin:round;stroke-miterlimit:4;stroke-dasharray:none;stroke-opacity:1;paint-order:markers fill stroke" />
    <path
       inkscape:connector-curvature="0"
       id="path22"
       d="m 20.198275,287.79556 q 0,0.73047 -0.243489,1.35352 -0.24349,0.61588 -0.723308,1.06706 -0.479818,0.45117 -1.195963,0.70182 -0.716146,0.25065 -1.661459,0.25065 h -0.895182 v 3.00781 h -1.776042 v -9.36002 h 2.742839 q 0.909505,0 1.604167,0.20052 0.701822,0.19336 1.174479,0.57291 0.479817,0.37956 0.723307,0.93815 0.250651,0.55144 0.250651,1.26758 z m -1.847656,0.12175 q 0,-0.3724 -0.121745,-0.67318 -0.114583,-0.30794 -0.358073,-0.52279 -0.236328,-0.21484 -0.601562,-0.32942 -0.365235,-0.11459 -0.866537,-0.11459 h -0.923828 v 3.43034 h 0.98112 q 0.458333,0 0.809245,-0.12174 0.350911,-0.12891 0.587239,-0.36524 0.24349,-0.23633 0.365235,-0.56575 0.128906,-0.32943 0.128906,-0.73763 z"
       style="fill:#ffffff" />
    <path
       inkscape:connector-curvature="0"
       id="path24"
       d="m 26.11364,294.17642 -2.506511,-5.58594 -0.515625,-1.20312 v 3.88151 2.90755 h -1.604167 v -9.36002 h 2.162761 l 2.556641,5.62174 0.451171,1.0957 v -4.13216 -2.58528 h 1.604167 v 9.36002 z"
       style="fill:#ffffff" />
    <path
       inkscape:connector-curvature="0"
       id="path26"
       d="m 32.967155,290.21614 v -1.45378 h 3.330078 v 4.99154 q -0.644531,0.30078 -1.346354,0.44401 -0.701823,0.14323 -1.52539,0.14323 -0.973959,0 -1.754558,-0.30079 -0.773437,-0.30078 -1.317708,-0.89518 -0.544271,-0.5944 -0.837891,-1.47526 -0.286458,-0.88086 -0.286458,-2.04101 0,-1.16732 0.300781,-2.09115 0.307943,-0.92383 0.888021,-1.5612 0.58724,-0.64453 1.432292,-0.98112 0.852213,-0.33659 1.940755,-0.33659 0.644531,0 1.253255,0.11459 0.615886,0.10742 1.22461,0.29362 v 1.74023 q -0.529948,-0.25065 -1.17448,-0.4082 -0.637369,-0.16472 -1.289062,-0.16472 -0.658854,0 -1.167318,0.22917 -0.501302,0.22917 -0.845052,0.65169 -0.336589,0.42253 -0.515625,1.03842 -0.171875,0.61588 -0.171875,1.38932 0,0.74479 0.136068,1.34635 0.136067,0.5944 0.436849,1.01693 0.307942,0.41536 0.78776,0.63737 0.479818,0.222 1.167318,0.222 0.164713,0 0.286458,-0.007 0.121745,-0.0143 0.229167,-0.0358 0.107422,-0.0215 0.200521,-0.0501 0.10026,-0.0287 0.207682,-0.0645 v -2.39192 z"
       style="fill:#ffffff" />
  </g>
</svg>
